M48
;Layer_Color=9474304
;FILE_FORMAT=2:4
INCH,LZ
;TYPE=PLATED
T1F00S00C0.0118
T2F00S00C0.0236
T3F00S00C0.0250
T4F00S00C0.0280
T5F00S00C0.0315
T6F00S00C0.0380
T7F00S00C0.0472
%
T01
X-019685Y003937
X-017717Y005906
Y007874
X-015748
X-017717Y009843
Y011811
X-015915Y014154
X-015856Y014488
X-015748Y001969
X-015758Y000285
X-013583Y003602
X-012677
X-011742Y003543
X-011516Y004124
X-010846Y004134
X-010039Y004035
X-009734Y003337
X-010699Y003287
X-008691Y003346
X-007805Y003415
X-007283Y003819
X-007126Y004665
X-008337Y004823
X-00876Y0044
X-009075Y004656
X-009213Y005246
X-009065Y005925
X-009045Y006762
X-0094Y006526
X-010138Y005994
X-010108Y005266
X-011654Y00497
X-012441Y004656
X-013022Y004301
X-012933Y00624
X-01378Y005906
X-013868Y008091
X-014291Y008012
X-013297Y008091
X-013307Y008957
X-012864Y008927
X-0131Y009951
X-012549Y010482
X-011919Y011063
X-011811Y009843
X-011526Y008366
X-01188Y008071
X-012274Y007156
X-012864Y007402
X-01128Y006063
X-009183Y007687
X-008189Y007057
X-007972Y005374
X-005906Y005906
X-005157Y00625
X-005719Y007096
X-005315Y00377
X-005748Y003366
X-006673Y003386
X-004764Y003307
X-004291Y004075
X-003937Y003937
X-001909Y004055
X-001821Y003366
X-000866Y003406
X-000809Y013969
X-001154Y01388
X-001809Y013969
X-002154Y01388
X-002809Y013969
X-003154Y01388
X-003809Y013969
X-004154Y01388
X-004833Y013947
X-005148Y013878
X-005699Y013947
X-006624Y013888
X-008031Y015522
X-011014Y015472
X-0119Y015512
X-012864Y015423
X-013563Y015502
X-013465Y01435
X-014331Y013888
X-014843Y013888
X-015325
X-015315Y011102
X-014852Y011112
X-014094Y011043
X-01376Y010669
X-014291Y009902
X-014852Y008898
X-011732Y012559
X-010768Y01251
X-009823Y012618
X-009213Y011506
X-009469Y011171
X-010915Y01439
X-011909Y014419
X-000154Y01388
X000191Y013969
X000846Y01388
X001171Y013969
X00185Y013888
X002195Y013976
X002844Y013868
X005906Y011811
Y009843
X007874
X007628Y00872
X008632Y008661
X009843Y009843
X011811
X011644Y008642
X011654Y007608
X010413Y007175
X00999Y005906
X010207Y005305
X009843Y003937
X011811
X01378
Y005906
X012667Y008671
X01378Y009843
Y011811
X011811
X011978Y014085
X012362Y013917
X013014Y014006
X013368Y013907
X01436Y013937
X011368Y013907
X011014Y014006
X010368Y013907
X010014Y014006
X009368Y013907
X009014Y014006
X008368Y013907
X008014Y014006
X006742Y007579
X006467Y006988
X005906Y007874
X003937
Y005906
Y003937
X003327Y00439
X003071Y003366
X001969Y003937
X000049Y004242
X005453Y00438
X005079Y003327
X006693Y00564
X009341Y006191
X008169Y000285
X001969Y007874
X017717
Y005906
X015748
Y009843
Y011811
Y01378
Y015748
Y017717
X017717
Y019685
X015748
Y021654
Y023622
X017717
Y027559
Y029528
X01378Y023622
Y021654
X009843
Y023622
Y025591
X009596Y026565
X007589Y026585
X006555Y026594
X004744Y027116
X003612Y026663
X002953Y026526
X001969Y027559
X0
X000246Y028937
X003937Y029528
X005906
Y023622
X004528Y023612
X004459Y02247
X003465Y022461
X0025
X002618Y021398
X002215
X001407Y021407
X002323Y020512
X002559Y020335
X002736Y020098
X004203Y01997
X004646
X005167
X005659Y019951
X006152Y020276
X006053Y020856
X006171Y021378
X006526Y021457
X007057Y020846
X007156Y020266
X007854Y020394
X007913Y019705
X007874Y021654
Y023622
X005167Y021407
X004783Y020709
X002559Y023622
X002195Y016024
X00186Y016112
X001191Y016024
X000846Y016112
X000191Y016024
X003937Y015748
X008228Y015994
X009193Y016004
X010138Y015984
X011132Y015994
X01189Y016112
X013014Y015994
X013368Y016093
X013911
X014266Y015994
X010138Y018996
X-000196Y021378
X-000049Y02189
X-000512Y022293
X-000955Y022067
X-001201Y02185
X-004232Y020531
X-005748Y017825
X-005089Y016063
X-004665Y016112
X-004154
X-003809Y016024
X-003154Y016112
X-002809Y016024
X-002154Y016112
X-001809Y016024
X-001154Y016112
X-000809Y016024
X-000154Y016112
X-009843Y015748
X-009656Y017953
X-009035Y018199
X-010089Y01873
X-0106Y020059
X-011762Y020138
X-012224Y021201
X-011811Y021654
X-011191Y021398
X-010423Y022077
X-009764Y022421
X-009783Y022766
X-008868Y022874
X-008632Y022057
X-007854Y022008
X-006998Y0231
X-005994Y023051
X-006437Y024203
X-005659Y024547
X-004596Y024606
X-005039Y025089
X-004085Y025128
X-003543Y024705
X-002776Y025197
X-001968Y027559
X-004567Y027126
X-005118Y026093
X-005984Y026053
X-006762Y026093
X-00814Y02623
X-00878Y026329
X-009291Y025935
X-008071Y025049
X-007746Y024291
X-009232Y02064
X-00939Y02001
X-009705Y021004
X-011073Y0175
X-012352Y018061
X-012569Y016978
X-012402Y016152
X-013337Y016093
X-014341Y015709
X-014843Y016112
X-015325
X-015541Y017244
X-015591Y017884
X-014833Y017726
X-014813Y021201
X-014537Y021959
X-015098Y026073
X-015118Y026673
X-01378Y027559
X-011811
X-009843
Y029528
X-007874
X-004872Y0294
X-003937Y029528
X-005059Y028386
X-000226Y029183
X-010837Y026506
X-012894Y025128
X-015728Y026053
X-016161Y026585
X-01687Y026565
X-016831Y027352
X-017018Y02814
X-016152Y027677
X-017717Y029528
X-01812Y026191
X-017864Y024291
X-017982Y023091
X-017185Y023514
X-016801Y023031
X-015748Y023622
X-017441Y021132
X-017717Y019685
Y017717
Y015748
X-015827Y018524
X-018652Y02188
X-019685Y025591
X-017717Y031496
Y033465
X-015994Y033661
X-016093Y035325
X-017717Y035433
Y037402
Y03937
Y041339
Y043307
X-015748
Y045276
X-017717
X-019685
Y043307
X-015915Y039695
X-011317Y039764
X-011002Y039666
X-009843Y03937
X-009075Y039311
X-007874Y03937
X-007317Y039764
X-007002Y039666
X-007874Y037402
X-005906
X-004951Y036073
X-003937Y035433
X-004577Y034154
X-001968Y033465
X-003937Y031496
X-005906
X-007874
X-007317Y032764
X-007002Y032666
X-008573Y034183
X-009557Y034193
X-009843Y035433
X-007874
X-009843Y037402
Y031496
X-015591Y034213
X-01378Y043307
X-011811
Y045276
X-009843
X-007874
X-005906
Y043307
X-003937
X-001968Y041339
Y03937
X-003937
X-007874Y043307
X-01378Y045276
X0
X001969
X002156Y044626
X003937Y045276
Y043307
X005906
X007874
Y045276
X011811
X01378
Y041339
Y03937
Y037402
Y035433
Y033465
Y031496
X011811
Y033465
X009478Y033848
X007874Y033465
Y031496
X009843
X005906
X003937
X003258Y033524
X003337Y03435
X003937Y035433
X005906
Y037402
X007874
Y03937
Y041339
X003937
Y03937
Y037402
X0Y03937
Y041339
Y043307
X011811
Y03937
X015748
X017717
Y041339
Y043307
X015748
Y045276
X017717Y037402
Y033465
Y031496
X015748
Y047244
X01378
X011811
X009843
X007874
X005906
X003937
X001969
X0
X-001968
X-019685
T02
X-012657Y028967
X-005088Y02999
X-005089Y036723
T03
X-016089Y008506
Y011506
X-016634Y01252
X-016089Y0135
X-017785Y013504
X-015089Y0135
X-014089Y0135
X-013089Y0135
X-013091Y01252
X-013089Y011506
X-012089
X-011089
X-010089
X-010089Y0135
X-011089
X-012089Y0135
X-014089Y011506
X-015089
Y008506
X-014089
X-013089
X-012089
X-011089
X-010089
X-005904Y0085
X-004904
X-003904
X-002904
X-001904
X-000904
Y0115
X-001904
X-002904
X-003904
X-004904
X-005904
X-005909Y013496
X-004909
X-003909
X-002909
X-001909
X-000909
X-001407Y0125
X-000407
X-002407
X-003407
X-004407
X000593
X001593
X002593
X003593
X003096Y0115
X002096
X001096
X000096
X000091Y013496
X001091
X002091
X003091
X00714Y0135
X00814
X00914
X01014
X01114
X01214
X01314
X01414
X01514
X014634Y0125
X013634
X012634
X011634
X010634
X009634
X008634
X00814Y0115
X00714
X00914
X01014
X01114
X01214
X01314
X01414
X01514
Y0085
X01414
X01314
X01214
X01114
X01014
X00914
X00814
X00714
X003096
X002096
X001096
X000096
X01614
Y0115
X016634Y0125
X015634
X01614Y0135
Y0165
X016136Y022591
X017136
X018136
X019136
Y025591
X018136
X017136
X016136
X018587Y029691
X015587Y029691
X013071Y029695
X012071
X011071Y029695
X010071
X009071Y029695
X008071
X007071
X007067Y031122
X003524
X001685Y030679
Y029679
X001685Y028681
X002618Y029547
X002956Y025591
X003956
X004956
X005956
X006956
X007956
X008956
X009071Y026695
X010071Y026695
X011071
X012071Y026695
X013071
X013136Y025591
X014136
X015136
Y022591
X014136
X013136
X008956
X007956
X006956
X005956
X004956
X003956
X002956
X003091Y016496
X002091
X001091
X000091
X00714Y0165
X00814
X00914
X01014
X01114
X01214
X01314
X01414
X01514
X008071Y026695
X007071Y026695
X-001004Y025591
X-002004
X-003004
X-004004
X-005004
X-006004
X-007004
X-008004
X-008088Y027172
X-007088Y027172
X-006088Y027172
X-005088Y027172
X-004088
X-003088
X-001858Y028681
Y029679
Y030679
X-002004Y022591
X-001004
X-003004
X-004004
X-005004
X-006004
X-007004
X-008004
X-010423Y021594
X-011965Y022591
X-012965
X-013965
X-013967Y021594
X-015089Y021594
X-014965Y022591
Y025591
X-013965
X-012965
X-011965
X-012088Y027172
X-011088Y027172
X-010088Y027172
X-009088
X-013088Y027172
X-014088Y027172
X-015088
X-01374Y020571
X-014089Y0165
X-013089Y0165
X-012089
X-011089Y0165
X-010089
X-005909Y016496
X-004909
X-003909
X-002909
X-001909
X-000909
X-015089Y0165
X-016089
X-017785Y017047
X-017283Y020571
X-016965Y022591
X-017965
X-015965
Y025591
X-016965
X-017965
X-016088Y027172
X-019026Y021594
X-016088Y033172
X-016088Y034172
Y040172
Y041172
X-015088Y041172
Y040172
X-014088Y040172
X-013088Y040172
X-012088Y040172
X-011088Y040172
X-011088Y041172
X-010088Y041172
X-009088
X-008088Y041172
X-007088Y041172
X-007088Y040172
X-006088Y040172
X-005088
X-004088Y040172
X-003088Y040172
Y041172
X-004088Y041172
X-005088Y041172
X-006088Y041172
X-008088Y040172
X-009088
X-010088
X-012088Y041172
X-013088Y041172
X-014088Y041172
X-014088Y034172
X-015088
X-015088Y033172
X-014088
X-013088Y033172
Y034172
X-012088Y034172
X-011088Y034172
X-011088Y033172
X-012088Y033172
X-010088Y033172
Y034172
X-009088Y034172
X-008088Y034172
X-007088
X-006088Y034172
X-005088Y034172
X-005088Y033172
X-006088
X-007088Y033172
X-008088Y033172
X-009088Y033172
X-004088Y033172
X-003088Y033172
X-003088Y034172
X-004088Y034172
X-001839Y035669
X-001858Y036665
Y037665
Y038661
Y042667
Y043671
Y044671
Y045667
X-000541Y033967
X-001858Y031675
X001685
X002618Y033091
X003002Y033967
X001705Y035669
X001685Y036665
X001685Y037665
Y038661
X001685Y042667
X001685Y043671
X001685Y044671
X001685Y045667
X003573Y04625
X007116
X006299Y045
Y043996
Y042992
X007726Y042205
X008841Y040968
X009841
X010841Y040968
X011841
X011841Y037968
X010841
X010837Y037087
X009841Y037968
X008841
X007726Y037963
X007726Y038661
X006722Y037963
Y034419
X007726
X00627Y033386
Y032382
X009813
Y033386
X010837Y033543
X015587Y032691
X014026Y042726
X010482
X009843Y042992
Y043996
Y045
X018587Y032691
X-003088Y047172
X-004088
X-005088Y047172
X-006088
X-007088
X-008088Y047172
X-009088Y047172
X-010088Y047172
X-011088Y047172
X-012088
X-013088Y047172
X-014088Y047172
X-015088Y047172
X-016088Y047172
T04
X-008691Y008504
X-007411Y008504
Y010472
X-008691Y010472
X-008691Y012185
X-008691Y013504
X-007411Y013504
Y015472
X-008691Y015472
X-006722Y012185
X00437Y013504
X00565Y013504
Y015472
X00437Y015472
X00437Y010463
X00565Y010463
Y008494
X00437Y008494
X017411Y008494
X018691Y008494
Y010463
X017411Y010463
X01752Y012244
X017411Y013504
X018691Y013504
Y015472
X017411Y015472
X019488Y012244
X016673Y026634
X016673Y027923
X014705
X014705Y026634
X011748Y025586
X010468Y025586
Y023617
X011748Y023617
X001565Y023533
X000285Y023533
Y025502
X001565Y025502
X-009163Y025502
X-010443Y025502
Y023533
X-009163Y023533
X-007037Y021283
X-005069
X-0069Y016467
X-008868Y016467
X-017579Y026575
X-017579Y027854
X-017372Y028967
X-018701
X-019547Y027854
X-019547Y026575
X-018701Y030935
X-017372
X-018701Y031722
Y033691
Y034882
X-017372
Y03685
X-018701
Y037628
Y039596
X-019163Y041339
X-018701Y042451
X-017372
X-017195Y041339
X-017372Y044419
X-018701
X003563Y045
X005532
X004892Y043957
Y041988
X006467Y041417
Y039449
X004892Y036694
X003002
Y034726
X003671Y033819
X003524Y032382
X005492
X00564Y033819
X004892Y034726
X009537Y034331
Y036299
X012136Y036299
X013543
X012915Y0375
X012919Y03878
X014888
X014883Y0375
X015591Y03564
X015591Y03436
X013543Y034331
X012136
X012915Y041437
X014883
X013238Y043996
X01127
X017559Y03564
X017559Y03436
T05
X016063Y044183
T06
X000421Y0185
X001421
Y0195
X000421
X002421
X003421
X004421
Y0185
X003421
X002421
X005421
Y0195
X006421
X007421
X008421
X009421
Y0185
X008421
X007421
X006421
X010421
Y0195
X011421
Y0185
X012421
X013421
X014421
Y0195
X013421
X012421
X-000579
Y0185
X-001579
Y0195
X-002579
X-003579
Y0185
X-004579
Y0195
X-005579
Y0185
X-006579
X-007579
X-008579
X-009579
X-010579
X-011579
X-012579
X-013579
X-014579
Y0195
X-013579
X-012579
X-011579
X-010579
X-009579
X-008579
X-007579
X-006579
X-002579Y0185
X004892Y037974
Y038974
Y039974
Y040974
T07
X016663Y0375
Y041437
X018632Y039469
X017933Y044331
M30
