G04*
G04 #@! TF.GenerationSoftware,Altium Limited,Altium Designer,19.1.8 (144)*
G04*
G04 Layer_Color=8388736*
%FSLAX24Y24*%
%MOIN*%
G70*
G01*
G75*
%ADD12R,0.0591X0.3189*%
G04:AMPARAMS|DCode=13|XSize=59.1mil|YSize=318.9mil|CornerRadius=15.7mil|HoleSize=0mil|Usage=FLASHONLY|Rotation=0.000|XOffset=0mil|YOffset=0mil|HoleType=Round|Shape=RoundedRectangle|*
%AMROUNDEDRECTD13*
21,1,0.0591,0.2874,0,0,0.0*
21,1,0.0276,0.3189,0,0,0.0*
1,1,0.0315,0.0138,-0.1437*
1,1,0.0315,-0.0138,-0.1437*
1,1,0.0315,-0.0138,0.1437*
1,1,0.0315,0.0138,0.1437*
%
%ADD13ROUNDEDRECTD13*%
%ADD14C,0.0539*%
%ADD15C,0.0039*%
%ADD16C,0.0827*%
%ADD17C,0.0630*%
%ADD18C,0.0925*%
%ADD19C,0.0639*%
%ADD20R,0.0639X0.0639*%
%ADD21C,0.1220*%
%ADD22R,0.0639X0.0639*%
%ADD23R,0.0539X0.0539*%
G04:AMPARAMS|DCode=24|XSize=53.9mil|YSize=53.9mil|CornerRadius=14.5mil|HoleSize=0mil|Usage=FLASHONLY|Rotation=270.000|XOffset=0mil|YOffset=0mil|HoleType=Round|Shape=RoundedRectangle|*
%AMROUNDEDRECTD24*
21,1,0.0539,0.0250,0,0,270.0*
21,1,0.0250,0.0539,0,0,270.0*
1,1,0.0289,-0.0125,-0.0125*
1,1,0.0289,-0.0125,0.0125*
1,1,0.0289,0.0125,0.0125*
1,1,0.0289,0.0125,-0.0125*
%
%ADD24ROUNDEDRECTD24*%
D12*
X-15118Y1673D02*
D03*
X630D02*
D03*
X-354D02*
D03*
D13*
X7520D02*
D03*
X6535D02*
D03*
X5551D02*
D03*
X4567D02*
D03*
X3583D02*
D03*
X2598D02*
D03*
X1614D02*
D03*
X-1339D02*
D03*
X-2323D02*
D03*
X-3307D02*
D03*
X-4291D02*
D03*
X-5276D02*
D03*
X-6260D02*
D03*
X-7244D02*
D03*
X-8228D02*
D03*
X-9213D02*
D03*
X-10197D02*
D03*
X-11181D02*
D03*
X-12165D02*
D03*
X-13150D02*
D03*
X-14134D02*
D03*
D14*
X18587Y32691D02*
D03*
Y29691D02*
D03*
X15587Y32691D02*
D03*
X15587Y29691D02*
D03*
X-6722Y12185D02*
D03*
X-8691D02*
D03*
X285Y23533D02*
D03*
Y25502D02*
D03*
X1565Y23533D02*
D03*
Y25502D02*
D03*
X13543Y34331D02*
D03*
Y36299D02*
D03*
X6467Y41417D02*
D03*
Y39449D02*
D03*
X3002Y34726D02*
D03*
Y36694D02*
D03*
X4892Y41988D02*
D03*
Y43957D02*
D03*
X19488Y12244D02*
D03*
X17520D02*
D03*
X-17785Y17047D02*
D03*
Y13504D02*
D03*
X-15089Y21594D02*
D03*
X-19026D02*
D03*
X15591Y35640D02*
D03*
X17559D02*
D03*
X15591Y34360D02*
D03*
X17559D02*
D03*
X-19163Y41339D02*
D03*
X-17195D02*
D03*
X-18701Y42451D02*
D03*
Y44419D02*
D03*
X-17372Y42451D02*
D03*
Y44419D02*
D03*
X-18701Y37628D02*
D03*
Y39596D02*
D03*
Y34882D02*
D03*
Y36850D02*
D03*
X-17372Y34882D02*
D03*
Y36850D02*
D03*
X-18701Y31722D02*
D03*
Y33691D02*
D03*
X-17372Y28967D02*
D03*
Y30935D02*
D03*
X-18701Y28967D02*
D03*
Y30935D02*
D03*
X5532Y45000D02*
D03*
X3563D02*
D03*
X14705Y27923D02*
D03*
X16673D02*
D03*
X14705Y26634D02*
D03*
X16673D02*
D03*
X11270Y43996D02*
D03*
X13238D02*
D03*
X9537Y34331D02*
D03*
Y36299D02*
D03*
X3671Y33819D02*
D03*
X5640D02*
D03*
X5492Y32382D02*
D03*
X3524D02*
D03*
X-5069Y21283D02*
D03*
X-7037D02*
D03*
X4892Y34726D02*
D03*
Y36694D02*
D03*
X-10443Y25502D02*
D03*
Y23533D02*
D03*
X-9163Y25502D02*
D03*
Y23533D02*
D03*
X-17579Y27854D02*
D03*
X-19547D02*
D03*
X-17579Y26575D02*
D03*
X-19547D02*
D03*
X10468Y25586D02*
D03*
Y23617D02*
D03*
X11748Y25586D02*
D03*
Y23617D02*
D03*
X-8868Y16467D02*
D03*
X-6900Y16467D02*
D03*
X-7411Y13504D02*
D03*
Y15472D02*
D03*
X-8691Y13504D02*
D03*
Y15472D02*
D03*
X-7411Y8504D02*
D03*
Y10472D02*
D03*
X-8691Y8504D02*
D03*
Y10472D02*
D03*
X5650Y13504D02*
D03*
Y15472D02*
D03*
X4370Y13504D02*
D03*
Y15472D02*
D03*
X5650Y8494D02*
D03*
Y10463D02*
D03*
X4370Y8494D02*
D03*
Y10463D02*
D03*
X18691Y13504D02*
D03*
Y15472D02*
D03*
X17411Y13504D02*
D03*
Y15472D02*
D03*
X18691Y8494D02*
D03*
Y10463D02*
D03*
X17411Y8494D02*
D03*
Y10463D02*
D03*
X12136Y36299D02*
D03*
Y34331D02*
D03*
X12919Y38780D02*
D03*
X14888D02*
D03*
X14883Y37500D02*
D03*
X12915D02*
D03*
X14883Y41437D02*
D03*
X12915D02*
D03*
X-17283Y20571D02*
D03*
X-13740Y20571D02*
D03*
X10837Y33543D02*
D03*
X10837Y37087D02*
D03*
X10482Y42726D02*
D03*
X14026D02*
D03*
X15634Y12500D02*
D03*
X14634D02*
D03*
X13634D02*
D03*
X12634D02*
D03*
X11634D02*
D03*
X10634D02*
D03*
X9634D02*
D03*
X8634D02*
D03*
X2593D02*
D03*
X1593D02*
D03*
X593D02*
D03*
X-407D02*
D03*
X-1407D02*
D03*
X-2407D02*
D03*
X-3407D02*
D03*
X-4407D02*
D03*
X2618Y33091D02*
D03*
Y29547D02*
D03*
X7726Y34419D02*
D03*
Y37963D02*
D03*
X-16088Y41172D02*
D03*
X-15088Y41172D02*
D03*
X-14088D02*
D03*
X-13088Y41172D02*
D03*
X-12088Y41172D02*
D03*
X-11088Y41172D02*
D03*
X-10088Y41172D02*
D03*
X-9088D02*
D03*
X-8088Y41172D02*
D03*
X-7088Y41172D02*
D03*
X-6088Y41172D02*
D03*
X-5088Y41172D02*
D03*
X-4088Y41172D02*
D03*
X-3088Y41172D02*
D03*
X-16088Y47172D02*
D03*
X-15088Y47172D02*
D03*
X-14088Y47172D02*
D03*
X-13088Y47172D02*
D03*
X-12088Y47172D02*
D03*
X-11088D02*
D03*
X-10088Y47172D02*
D03*
X-9088Y47172D02*
D03*
X-8088Y47172D02*
D03*
X-7088Y47172D02*
D03*
X-6088D02*
D03*
X-5088D02*
D03*
X-4088Y47172D02*
D03*
X-16088Y34172D02*
D03*
X-15088Y34172D02*
D03*
X-14088D02*
D03*
X-13088Y34172D02*
D03*
X-12088Y34172D02*
D03*
X-11088Y34172D02*
D03*
X-10088Y34172D02*
D03*
X-9088Y34172D02*
D03*
X-8088Y34172D02*
D03*
X-7088D02*
D03*
X-6088Y34172D02*
D03*
X-5088Y34172D02*
D03*
X-4088Y34172D02*
D03*
X-3088Y34172D02*
D03*
X-16088Y40172D02*
D03*
X-15088D02*
D03*
X-14088Y40172D02*
D03*
X-13088Y40172D02*
D03*
X-12088Y40172D02*
D03*
X-11088Y40172D02*
D03*
X-10088Y40172D02*
D03*
X-9088D02*
D03*
X-8088D02*
D03*
X-7088Y40172D02*
D03*
X-6088Y40172D02*
D03*
X-5088D02*
D03*
X-4088Y40172D02*
D03*
X-16088Y27172D02*
D03*
X-15088Y27172D02*
D03*
X-14088D02*
D03*
X-13088Y27172D02*
D03*
X-12088Y27172D02*
D03*
X-11088Y27172D02*
D03*
X-10088Y27172D02*
D03*
X-9088D02*
D03*
X-8088Y27172D02*
D03*
X-7088Y27172D02*
D03*
X-6088Y27172D02*
D03*
X-5088Y27172D02*
D03*
X-4088D02*
D03*
X-3088D02*
D03*
X-16088Y33172D02*
D03*
X-15088D02*
D03*
X-14088D02*
D03*
X-13088Y33172D02*
D03*
X-12088Y33172D02*
D03*
X-11088Y33172D02*
D03*
X-10088D02*
D03*
X-9088Y33172D02*
D03*
X-8088Y33172D02*
D03*
X-7088Y33172D02*
D03*
X-6088Y33172D02*
D03*
X-5088D02*
D03*
X-4088Y33172D02*
D03*
X7726Y38661D02*
D03*
Y42205D02*
D03*
X6722Y34419D02*
D03*
Y37963D02*
D03*
X3002Y33967D02*
D03*
X-541D02*
D03*
X9813Y33386D02*
D03*
X6270D02*
D03*
X19136Y25591D02*
D03*
X18136D02*
D03*
X17136D02*
D03*
X16136D02*
D03*
X15136D02*
D03*
X14136D02*
D03*
X13136D02*
D03*
X19136Y22591D02*
D03*
X18136D02*
D03*
X17136D02*
D03*
X16136D02*
D03*
X15136D02*
D03*
X14136D02*
D03*
X3524Y31122D02*
D03*
X7067D02*
D03*
X9813Y32382D02*
D03*
X6270D02*
D03*
X9843Y43996D02*
D03*
X6299D02*
D03*
X3573Y46250D02*
D03*
X7116D02*
D03*
X9843Y42992D02*
D03*
X6299D02*
D03*
X9843Y45000D02*
D03*
X6299D02*
D03*
X1685Y45667D02*
D03*
X-1858D02*
D03*
X1685Y38661D02*
D03*
X-1858D02*
D03*
X1685Y31675D02*
D03*
X-1858D02*
D03*
X1685Y43671D02*
D03*
X-1858Y43671D02*
D03*
X1685Y36665D02*
D03*
X-1858D02*
D03*
X1685Y29679D02*
D03*
X-1858Y29679D02*
D03*
X1685Y44671D02*
D03*
X-1858Y44671D02*
D03*
X1685Y37665D02*
D03*
X-1858Y37665D02*
D03*
X1685Y30679D02*
D03*
X-1858D02*
D03*
X1685Y42667D02*
D03*
X-1858D02*
D03*
X1705Y35669D02*
D03*
X-1839Y35669D02*
D03*
X1685Y28681D02*
D03*
X-1858Y28681D02*
D03*
X-16634Y12520D02*
D03*
X-13091D02*
D03*
X-10423Y21594D02*
D03*
X-13967D02*
D03*
X3956Y22591D02*
D03*
X4956D02*
D03*
X5956D02*
D03*
X6956D02*
D03*
X7956D02*
D03*
X8956D02*
D03*
X2956Y25591D02*
D03*
X3956D02*
D03*
X4956D02*
D03*
X5956D02*
D03*
X6956D02*
D03*
X7956D02*
D03*
X8956D02*
D03*
X-16965Y22591D02*
D03*
X-15965D02*
D03*
X-14965D02*
D03*
X-13965D02*
D03*
X-12965D02*
D03*
X-11965D02*
D03*
X-17965Y25591D02*
D03*
X-16965D02*
D03*
X-15965D02*
D03*
X-14965D02*
D03*
X-13965D02*
D03*
X-12965D02*
D03*
X-11965D02*
D03*
X12071Y29695D02*
D03*
X11071Y29695D02*
D03*
X10071D02*
D03*
X9071Y29695D02*
D03*
X8071D02*
D03*
X7071D02*
D03*
X13071Y26695D02*
D03*
X12071D02*
D03*
X11071Y26695D02*
D03*
X10071D02*
D03*
X9071Y26695D02*
D03*
X8071Y26695D02*
D03*
X7071Y26695D02*
D03*
X10841Y40968D02*
D03*
X9841Y40968D02*
D03*
X8841D02*
D03*
X11841Y37968D02*
D03*
X10841D02*
D03*
X9841Y37968D02*
D03*
X8841D02*
D03*
X-1004Y25591D02*
D03*
X-2004D02*
D03*
X-3004D02*
D03*
X-4004D02*
D03*
X-5004D02*
D03*
X-6004D02*
D03*
X-7004D02*
D03*
X-8004D02*
D03*
X-1004Y22591D02*
D03*
X-2004D02*
D03*
X-3004D02*
D03*
X-4004D02*
D03*
X-5004D02*
D03*
X-6004D02*
D03*
X-7004D02*
D03*
X-11089Y11506D02*
D03*
X-12089D02*
D03*
X-13089D02*
D03*
X-14089D02*
D03*
X-15089D02*
D03*
X-16089D02*
D03*
X-10089Y8506D02*
D03*
X-11089D02*
D03*
X-12089D02*
D03*
X-13089D02*
D03*
X-14089D02*
D03*
X-15089D02*
D03*
X-16089D02*
D03*
X-5904Y8500D02*
D03*
X-4904D02*
D03*
X-3904D02*
D03*
X-2904D02*
D03*
X-1904D02*
D03*
X-904D02*
D03*
X96D02*
D03*
X1096D02*
D03*
X2096D02*
D03*
X3096D02*
D03*
X-5904Y11500D02*
D03*
X-4904D02*
D03*
X-3904D02*
D03*
X-2904D02*
D03*
X-1904D02*
D03*
X-904D02*
D03*
X96D02*
D03*
X1096D02*
D03*
X2096D02*
D03*
X7140Y8500D02*
D03*
X8140D02*
D03*
X9140D02*
D03*
X10140D02*
D03*
X11140D02*
D03*
X12140D02*
D03*
X13140D02*
D03*
X14140D02*
D03*
X15140D02*
D03*
X16140D02*
D03*
X7140Y11500D02*
D03*
X8140D02*
D03*
X9140D02*
D03*
X10140D02*
D03*
X11140D02*
D03*
X12140D02*
D03*
X13140D02*
D03*
X14140D02*
D03*
X15140D02*
D03*
X-5909Y13496D02*
D03*
X-4909D02*
D03*
X-3909D02*
D03*
X-2909D02*
D03*
X-1909D02*
D03*
X-909D02*
D03*
X91D02*
D03*
X1091D02*
D03*
X2091D02*
D03*
X3091D02*
D03*
X-5909Y16496D02*
D03*
X-4909D02*
D03*
X-3909D02*
D03*
X-2909D02*
D03*
X-1909D02*
D03*
X-909D02*
D03*
X91D02*
D03*
X1091D02*
D03*
X2091D02*
D03*
X7140Y13500D02*
D03*
X8140D02*
D03*
X9140D02*
D03*
X10140D02*
D03*
X11140D02*
D03*
X12140D02*
D03*
X13140D02*
D03*
X14140D02*
D03*
X15140D02*
D03*
X16140D02*
D03*
X7140Y16500D02*
D03*
X8140D02*
D03*
X9140D02*
D03*
X10140D02*
D03*
X11140D02*
D03*
X12140D02*
D03*
X13140D02*
D03*
X14140D02*
D03*
X15140D02*
D03*
X-11089D02*
D03*
X-12089Y16500D02*
D03*
X-13089D02*
D03*
X-14089Y16500D02*
D03*
X-15089D02*
D03*
X-16089D02*
D03*
X-10089Y13500D02*
D03*
X-11089D02*
D03*
X-12089Y13500D02*
D03*
X-13089D02*
D03*
X-14089Y13500D02*
D03*
X-15089Y13500D02*
D03*
X-16089Y13500D02*
D03*
D15*
X16663Y39469D02*
D03*
X19616Y41437D02*
D03*
Y37500D02*
D03*
X18632Y41437D02*
D03*
Y37500D02*
D03*
D16*
X16663Y41437D02*
D03*
Y37500D02*
D03*
X18632Y39469D02*
D03*
D17*
X16063Y44183D02*
D03*
D18*
X17933Y44331D02*
D03*
D19*
X14421Y19500D02*
D03*
Y18500D02*
D03*
X13421Y19500D02*
D03*
Y18500D02*
D03*
X9421Y19500D02*
D03*
Y18500D02*
D03*
X8421Y19500D02*
D03*
Y18500D02*
D03*
X7421Y19500D02*
D03*
Y18500D02*
D03*
X4421D02*
D03*
Y19500D02*
D03*
X3421D02*
D03*
Y18500D02*
D03*
X1421Y19500D02*
D03*
Y18500D02*
D03*
X421Y19500D02*
D03*
Y18500D02*
D03*
X-579Y19500D02*
D03*
Y18500D02*
D03*
X-1579Y19500D02*
D03*
Y18500D02*
D03*
X-3579Y19500D02*
D03*
Y18500D02*
D03*
X-4579Y19500D02*
D03*
Y18500D02*
D03*
X-13579D02*
D03*
X-12579D02*
D03*
X-11579D02*
D03*
X-10579D02*
D03*
X-9579D02*
D03*
X-8579D02*
D03*
X-7579D02*
D03*
X-6579D02*
D03*
X-5579D02*
D03*
Y19500D02*
D03*
X-6579D02*
D03*
X-7579D02*
D03*
X-8579D02*
D03*
X-9579D02*
D03*
X-10579D02*
D03*
X-11579D02*
D03*
X-12579D02*
D03*
X-13579D02*
D03*
X-14579D02*
D03*
X-2579Y18500D02*
D03*
Y19500D02*
D03*
X2421Y18500D02*
D03*
Y19500D02*
D03*
X5421Y18500D02*
D03*
Y19500D02*
D03*
X6421Y18500D02*
D03*
Y19500D02*
D03*
X10421Y18500D02*
D03*
Y19500D02*
D03*
X11421D02*
D03*
Y18500D02*
D03*
X12421D02*
D03*
Y19500D02*
D03*
X4892Y40974D02*
D03*
Y39974D02*
D03*
Y38974D02*
D03*
D20*
X-14579Y18500D02*
D03*
D21*
X-18307Y19000D02*
D03*
X18307D02*
D03*
X-18307Y47441D02*
D03*
X18307D02*
D03*
D22*
X4892Y37974D02*
D03*
D23*
X16634Y12500D02*
D03*
X-3088Y47172D02*
D03*
Y40172D02*
D03*
X-3088Y33172D02*
D03*
X13136Y22591D02*
D03*
X2956D02*
D03*
X-17965D02*
D03*
X13071Y29695D02*
D03*
X11841Y40968D02*
D03*
X-8004Y22591D02*
D03*
D24*
X3593Y12500D02*
D03*
X-10089Y11506D02*
D03*
X3096Y11500D02*
D03*
X16140D02*
D03*
X3091Y16496D02*
D03*
X16140Y16500D02*
D03*
X-10089D02*
D03*
M02*
